<svg xmlns="http://www.w3.org/2000/svg" width="39.374" height="32" viewBox="0 0 39.374 32">
  <path id="_013-twitter" data-name="013-twitter" d="M12.383,32.5c14.859,0,22.985-12.31,22.985-22.985q0-.525-.023-1.044a16.436,16.436,0,0,0,4.03-4.183,16.115,16.115,0,0,1-4.639,1.272,8.107,8.107,0,0,0,3.552-4.468,16.207,16.207,0,0,1-5.13,1.961,8.085,8.085,0,0,0-13.766,7.367A22.936,22.936,0,0,1,2.74,1.978a8.085,8.085,0,0,0,2.5,10.785,8.017,8.017,0,0,1-3.659-1.01c0,.034,0,.067,0,.1a8.081,8.081,0,0,0,6.481,7.919,8.067,8.067,0,0,1-3.649.138,8.087,8.087,0,0,0,7.547,5.611A16.207,16.207,0,0,1,1.927,28.982,16.472,16.472,0,0,1,0,28.871,22.868,22.868,0,0,0,12.383,32.5" transform="translate(0 -0.5)" fill="#f8f8f8"/>
</svg>
