<svg xmlns="http://www.w3.org/2000/svg" width="32" height="32" viewBox="0 0 32 32">
  <g id="_011-instagram" data-name="011-instagram" transform="translate(0 0)">
    <path id="Path_12" data-name="Path 12" d="M31.9,9.4a11.747,11.747,0,0,0-.744-3.884,7.842,7.842,0,0,0-1.845-2.834A7.844,7.844,0,0,0,26.48.839,11.744,11.744,0,0,0,22.6.1C20.89.018,20.345,0,16,0S11.11.018,9.4.1A11.748,11.748,0,0,0,5.519.84,7.842,7.842,0,0,0,2.685,2.685,7.843,7.843,0,0,0,.839,5.519,11.746,11.746,0,0,0,.1,9.4C.018,11.11,0,11.654,0,16s.019,4.891.1,6.6A11.744,11.744,0,0,0,.84,26.481a7.841,7.841,0,0,0,1.845,2.834A7.84,7.84,0,0,0,5.52,31.16,11.74,11.74,0,0,0,9.4,31.9c1.707.078,2.251.1,6.6.1s4.89-.018,6.6-.1a11.742,11.742,0,0,0,3.884-.744,8.18,8.18,0,0,0,4.679-4.679A11.743,11.743,0,0,0,31.9,22.6c.078-1.707.1-2.251.1-6.6s-.019-4.89-.1-6.6Zm-2.88,13.062a8.853,8.853,0,0,1-.551,2.971,5.3,5.3,0,0,1-3.037,3.037,8.853,8.853,0,0,1-2.971.551c-1.687.077-2.193.093-6.465.093s-4.779-.016-6.466-.093a8.856,8.856,0,0,1-2.971-.551,4.959,4.959,0,0,1-1.84-1.2,4.956,4.956,0,0,1-1.2-1.84,8.853,8.853,0,0,1-.551-2.971C2.9,20.779,2.883,20.272,2.883,16s.016-4.778.093-6.466a8.859,8.859,0,0,1,.551-2.971,4.96,4.96,0,0,1,1.2-1.84,4.954,4.954,0,0,1,1.84-1.2,8.851,8.851,0,0,1,2.971-.551C11.222,2.9,11.728,2.883,16,2.883h0c4.272,0,4.778.016,6.466.094a8.854,8.854,0,0,1,2.971.551,4.961,4.961,0,0,1,1.84,1.2,4.954,4.954,0,0,1,1.2,1.84,8.845,8.845,0,0,1,.551,2.971c.077,1.687.093,2.193.093,6.465S29.1,20.778,29.024,22.466Zm0,0" transform="translate(0 0)" fill="#f8f8f8"/>
    <path id="Path_13" data-name="Path 13" d="M132.755,124.539a8.216,8.216,0,1,0,8.216,8.216A8.216,8.216,0,0,0,132.755,124.539Zm0,13.55a5.333,5.333,0,1,1,5.334-5.334A5.333,5.333,0,0,1,132.755,138.089Zm0,0" transform="translate(-116.755 -116.755)" fill="#f8f8f8"/>
    <path id="Path_14" data-name="Path 14" d="M365.77,90.545a1.92,1.92,0,1,1-1.92-1.92A1.92,1.92,0,0,1,365.77,90.545Zm0,0" transform="translate(-339.309 -83.086)" fill="#f8f8f8"/>
  </g>
</svg>
